<?xml version="1.0" standalone="no"?>
<!DOCTYPE svg PUBLIC "-//W3C//DTD SVG 20010904//EN"
 "http://www.w3.org/TR/2001/REC-SVG-20010904/DTD/svg10.dtd">
<svg version="1.0" xmlns="http://www.w3.org/2000/svg"
 width="2048.000000pt" height="2048.000000pt" viewBox="0 0 2048.000000 2048.000000"
 preserveAspectRatio="xMidYMid meet">
<metadata>
Created by potrace 1.11, written by Peter Selinger 2001-2013
</metadata>
<g transform="translate(0.000000,2048.000000) scale(0.100000,-0.100000)"
fill="#000000" stroke="none">
<path d="M0 10240 l0 -10240 10240 0 10240 0 0 10240 0 10240 -10240 0 -10240
0 0 -10240z m9230 3098 c305 -111 556 -202 557 -203 4 -2 -2043 -5624 -2050
-5631 -4 -5 -1106 388 -1124 401 -3 1 1957 5391 2023 5568 14 37 29 67 32 67
4 0 257 -91 562 -202z m-2473 -1350 c-1 -4 -1034 -873 -2296 -1932 l-2293
-1924 -384 456 c-211 252 -382 460 -381 464 1 4 1034 873 2296 1932 l2293
1924 384 -456 c211 -252 382 -460 381 -464z m12012 373 c348 -446 362 -465
344 -481 -15 -14 -4555 -3562 -4673 -3652 l-36 -27 -367 471 c-304 388 -366
473 -355 484 49 48 4714 3682 4719 3676 3 -4 169 -216 368 -471z m-3633 -921
c99 -305 178 -558 175 -562 -3 -3 -1286 -422 -2851 -931 -1816 -590 -2847
-920 -2850 -913 -26 63 -366 1123 -361 1128 3 3 1286 422 2851 931 1816 590
2847 920 2850 913 2 -6 86 -261 186 -566z"/>
</g>
</svg>
